<svg xmlns="http://www.w3.org/2000/svg" width="800" height="800" fill="none" stroke="#fff" viewBox="-2.4 -2.4 28.8 28.8"><g id="SVGRepo_iconCarrier" stroke-linejoin="round" stroke-width="2"><path stroke-linecap="round" d="M9 7h6m0 10v-3m0-3h.01M12 11h.01M9 11h.01M9 14h.01M12 14h.01M12 17h.01M9 17h.01"/><path d="M5 7c0-1.886 0-2.828.586-3.414S7.114 3 9 3h6c1.886 0 2.828 0 3.414.586S19 5.114 19 7v10c0 1.886 0 2.828-.586 3.414S16.886 21 15 21H9c-1.886 0-2.828 0-3.414-.586S5 18.886 5 17z"/></g></svg>